<?xml version="1.0" standalone="no"?>
<!DOCTYPE svg PUBLIC "-//W3C//DTD SVG 20010904//EN"
 "http://www.w3.org/TR/2001/REC-SVG-20010904/DTD/svg10.dtd">
<svg version="1.0" xmlns="http://www.w3.org/2000/svg"
 width="293.000000pt" height="293.000000pt" viewBox="0 0 293.000000 293.000000"
 preserveAspectRatio="xMidYMid meet">
<metadata>
Created by potrace 1.14, written by Peter Selinger 2001-2017
</metadata>
<g transform="translate(0.000000,293.000000) scale(0.100000,-0.100000)"
fill="#000000" stroke="none">
<path d="M1309 2926 c-2 -2 -26 -7 -54 -10 -310 -33 -637 -189 -854 -406 -134
-134 -226 -284 -285 -461 -44 -133 -47 -147 -51 -309 -6 -187 24 -321 111
-505 l33 -70 988 0 988 0 0 445 c1 245 -1 452 -3 460 -1 8 -164 96 -362 195
l-360 180 -360 -180 c-224 -112 -360 -185 -361 -195 -1 -8 -2 -141 -3 -295
l-1 -280 75 -5 c41 -3 91 -4 110 -2 l35 4 -1 234 c0 128 2 237 5 242 3 5 117
65 253 134 l246 124 254 -126 253 -127 1 -306 c0 -211 -3 -307 -10 -310 -6 -2
-369 -3 -806 -3 l-795 1 -22 55 c-57 145 -67 372 -24 535 103 391 463 694 919
775 135 24 375 21 497 -5 428 -92 749 -357 870 -719 35 -103 40 -146 39 -301
-1 -154 -21 -240 -90 -380 -71 -145 -152 -241 -343 -405 -78 -67 -99 -85 -131
-113 -14 -12 -90 -78 -170 -147 -80 -69 -150 -130 -156 -136 -6 -5 -35 -30
-64 -55 -29 -24 -58 -49 -64 -55 -6 -5 -44 -38 -84 -73 l-72 -62 -68 58 c-37
32 -72 63 -78 68 -6 6 -35 31 -65 57 -30 25 -65 56 -79 68 -14 12 -47 41 -73
64 -27 22 -59 50 -71 61 -12 11 -48 43 -81 70 -32 28 -63 55 -69 60 -6 6 -60
53 -120 105 l-108 94 -140 1 c-77 0 -141 -2 -143 -6 -5 -7 87 -96 190 -184 39
-33 72 -62 75 -65 3 -3 37 -32 75 -65 39 -33 75 -64 81 -70 6 -5 37 -32 69
-60 32 -27 63 -55 69 -60 6 -6 43 -37 81 -70 39 -33 72 -62 75 -65 3 -3 41
-36 85 -74 140 -120 197 -170 244 -212 52 -48 44 -50 139 33 32 28 116 100
187 162 72 63 144 125 160 140 17 14 77 66 135 116 58 49 107 92 110 95 6 7
206 179 245 211 114 94 315 321 315 357 0 6 4 12 8 14 4 2 24 37 44 78 131
271 141 596 27 872 -76 184 -200 349 -358 476 -25 20 -48 39 -51 42 -3 3 -41
29 -85 56 -162 102 -353 176 -545 210 -19 3 -46 8 -60 10 -31 6 -366 14 -371
10z"/>
</g>
</svg>
